<?xml version="1.0" encoding="iso-8859-1"?>
<!-- Generator: Adobe Illustrator 19.0.0, SVG Export Plug-In . SVG Version: 6.00 Build 0)  -->
<svg version="1.1" id="Layer_1" xmlns="http://www.w3.org/2000/svg" xmlns:xlink="http://www.w3.org/1999/xlink" x="0px" y="0px"
	 viewBox="0 0 503.607 503.607" style="enable-background:new 0 0 503.607 503.607;" xml:space="preserve">
<g>
	<g>
		<path d="M495.213,83.934h-8.393V16.787C486.82,7.51,479.31,0,470.033,0h-83.934c-9.277,0-16.787,7.51-16.787,16.787v67.148h-8.393
			c-4.636,0-8.393,3.758-8.393,8.393v176.271c0,1.658,0.491,3.278,1.41,4.657l15.377,23.057v31.032c0,4.636,3.758,8.393,8.393,8.393
			h8.393v16.787c-4.636,0-8.393,3.758-8.393,8.393c0,4.636,3.758,8.393,8.393,8.393v16.787c0,9.277,7.51,16.787,16.787,16.787
			c0,27.755-22.606,50.361-50.361,50.361H235.016c-27.755,0-50.361-22.606-50.361-50.361c9.277,0,16.787-7.51,16.787-16.787v-16.787
			c4.636,0,8.393-3.758,8.393-8.393c0-4.636-3.758-8.393-8.393-8.393v-16.785h33.574v41.966c0,9.277,7.51,16.787,16.787,16.787
			h16.787c9.277,0,16.787-7.51,16.787-16.787v-41.966h16.787c4.636,0,8.393-3.758,8.393-8.393v-41.969
			c4.636,0,8.393-3.758,8.393-8.393s-3.758-8.393-8.393-8.393v-16.787c4.636,0,8.393-3.758,8.393-8.393
			c0-4.636-3.758-8.393-8.393-8.393V218.23c4.636,0,8.393-3.758,8.393-8.393s-3.758-8.393-8.393-8.393v-16.787
			c4.636,0,8.393-3.758,8.393-8.393s-3.758-8.393-8.393-8.393v-16.787c4.636,0,8.393-3.758,8.393-8.393
			c0-4.636-3.758-8.393-8.393-8.393V92.33c0-4.636-3.758-8.393-8.393-8.393h-8.393V67.148c0-9.277-7.51-16.787-16.787-16.787
			h-16.787c-9.277,0-16.787,7.51-16.787,16.787v16.789h-8.393V16.787C235.016,7.51,227.507,0,218.229,0H100.721
			c-9.277,0-16.787,7.51-16.787,16.787v67.149h-8.393V67.148c0-9.277-7.51-16.787-16.787-16.787H41.967
			c-9.277,0-16.787,7.51-16.787,16.787v16.789h-8.393c-4.636,0-8.393,3.758-8.393,8.393v41.966c-4.636,0-8.393,3.758-8.393,8.393
			c0,4.636,3.758,8.393,8.393,8.393v16.787c-4.636,0-8.393,3.758-8.393,8.393s3.758,8.393,8.393,8.393v16.787
			c-4.636,0-8.393,3.758-8.393,8.393s3.758,8.393,8.393,8.393v16.787c-4.636,0-8.393,3.758-8.393,8.393
			c0,4.636,3.758,8.393,8.393,8.393v16.787c-4.636,0-8.393,3.758-8.393,8.393s3.758,8.393,8.393,8.393v41.969
			c0,4.636,3.758,8.393,8.393,8.393h16.787v41.966c0,9.277,7.51,16.787,16.787,16.787h16.787c9.277,0,16.787-7.51,16.787-16.787
			v-41.966h33.574v16.785c-4.636,0-8.393,3.758-8.393,8.393c0,4.636,3.758,8.393,8.393,8.393v16.787
			c0,9.277,7.51,16.787,16.787,16.787c0,55.542,45.18,100.721,100.721,100.721h117.508c55.542,0,100.721-45.18,100.721-100.721
			c9.277,0,16.787-7.51,16.787-16.787v-16.787c4.636,0,8.393-3.758,8.393-8.393c0-4.636-3.758-8.393-8.393-8.393v-16.787h8.393
			c4.636,0,8.393-3.758,8.393-8.393v-31.032l15.377-23.057c0.92-1.379,1.41-2.999,1.41-4.657V92.328
			C503.607,87.692,499.849,83.934,495.213,83.934z M260.197,67.148h16.787v16.787h-16.787V67.148z M100.721,16.787h117.508v67.148
			H100.721V16.787z M41.967,67.148h16.787v16.787H41.967V67.148z M386.098,16.787h16.787v33.574h16.787V16.787h16.787v33.574h16.787
			V16.787h16.787v67.148h-83.934V16.787z M268.59,377.705h-16.787v-41.966h16.787V377.705z M25.18,100.723h268.59v33.572H25.18
			V100.723z M25.18,151.082h268.59v16.787H25.18V151.082z M25.18,184.656h268.59v16.787H25.18V184.656z M25.18,218.23h268.59v16.787
			H25.18V218.23z M25.18,251.803h268.59v16.787H25.18V251.803z M25.18,285.377h268.59v33.575h-16.754
			c-0.011,0-0.022-0.002-0.033-0.002H243.41c-0.011,0-0.022,0.002-0.033,0.002h-50.295c-0.011,0-0.022-0.002-0.033-0.002h-67.148
			c-0.011,0-0.022,0.002-0.033,0.002H75.574c-0.011,0-0.022-0.002-0.033-0.002H41.967c-0.011,0-0.022,0.002-0.033,0.002H25.18
			V285.377z M67.148,377.705H50.361v-41.966h16.787V377.705z M134.295,335.739h50.361v16.785h-50.361V335.739z M184.656,369.311
			v16.787h-8.393h-33.574h-8.393v-16.787H184.656z M352.525,486.82H235.016c-46.271,0-83.934-37.664-83.934-83.934h16.787
			c0,37.026,30.122,67.148,67.148,67.148h117.508c37.026,0,67.148-30.122,67.148-67.148h16.787
			C436.459,449.156,398.795,486.82,352.525,486.82z M453.246,386.098h-8.393h-33.574h-8.393v-16.787h50.361V386.098z
			 M453.246,352.525h-50.361v-16.787h50.361V352.525z M486.82,266.057l-15.376,23.057c-0.92,1.379-1.41,2.999-1.41,4.657v25.18
			h-8.393h-67.148h-8.393v-25.18c0-1.657-0.491-3.278-1.41-4.657l-15.377-23.057V100.721h8.393h100.721h8.393V266.057z"/>
	</g>
</g>
<g>
</g>
<g>
</g>
<g>
</g>
<g>
</g>
<g>
</g>
<g>
</g>
<g>
</g>
<g>
</g>
<g>
</g>
<g>
</g>
<g>
</g>
<g>
</g>
<g>
</g>
<g>
</g>
<g>
</g>
</svg>
